<svg xmlns="http://www.w3.org/2000/svg" width="16" height="16" viewBox="0 0 16 16">
  <g id="ic-删除" transform="translate(-373 -177)">
    <path id="路径_1335" data-name="路径 1335" d="M376.353,181.667v9.353a.649.649,0,0,0,.647.647h8.02a.647.647,0,0,0,.647-.647v-9.353ZM385.02,193H377a1.983,1.983,0,0,1-1.98-1.98V180.333H387V191.02A1.982,1.982,0,0,1,385.02,193Z" fill="currentColor"/>
    <path id="路径_1336" data-name="路径 1336" d="M388.333,181.667H373.667a.667.667,0,0,1,0-1.334h14.666a.667.667,0,0,1,0,1.334M385,180.333h-1.333V179a.668.668,0,0,0-.667-.667h-4a.669.669,0,0,0-.667.667v1.333H377V179a2,2,0,0,1,2-2h4a2,2,0,0,1,2,2Zm-6,9.334a.669.669,0,0,1-.667-.667v-4.667a.667.667,0,0,1,1.334,0V189a.669.669,0,0,1-.667.667m4,0a.669.669,0,0,1-.667-.667v-4.667a.667.667,0,0,1,1.334,0V189a.669.669,0,0,1-.667.667" fill="currentColor"/>
  </g>
</svg>
