<svg xmlns="http://www.w3.org/2000/svg" width="16" height="16" viewBox="0 0 16 16">
  <g id="ic-导出" transform="translate(548.453)">
    <rect id="矩形_4882" data-name="矩形 4882" width="16" height="16" transform="translate(-548.453)" fill="none"/>
    <g id="组_12445" data-name="组 12445" transform="translate(-547.905 0.5)">
      <path id="路径_38072" data-name="路径 38072" d="M118.612,115.55H108.358a2.31,2.31,0,0,1-2.278-2.278v-1.323a.576.576,0,1,1,1.139,0v1.323a1.054,1.054,0,0,0,1.044,1.044h10.253a1.054,1.054,0,0,0,1.044-1.044V102.828a1.054,1.054,0,0,0-1.044-1.044H108.264a1.054,1.054,0,0,0-1.044,1.044v1.323a.547.547,0,0,1-.57.57.613.613,0,0,1-.57-.57v-1.323a2.31,2.31,0,0,1,2.278-2.278h10.253a2.31,2.31,0,0,1,2.278,2.278v10.443A2.377,2.377,0,0,1,118.612,115.55Zm0,0" transform="translate(-105.985 -100.55)" fill="currentColor"/>
      <path id="路径_38073" data-name="路径 38073" d="M100.96,331.665l3.133,3.133a.725.725,0,0,0,.475.19c.19,0,.285-.095.475-.19a.708.708,0,0,0,0-.854l-1.614-1.614h8.165a.665.665,0,0,0,0-1.329h-8.165l1.614-1.614a.6.6,0,1,0-.854-.854Zm0,0" transform="translate(-100.96 -324.165)" fill="currentColor"/>
    </g>
  </g>
</svg>
