<svg xmlns="http://www.w3.org/2000/svg" width="120" height="120" viewBox="0 0 120 120">
  <g id="ic-失败" transform="translate(-440 -240)">
    <circle id="椭圆_142" data-name="椭圆 142" cx="60" cy="60" r="60" transform="translate(440 240)" fill="#f25b43" opacity="0.1"/>
    <g id="组_12379" data-name="组 12379" transform="translate(-97 -2)">
      <circle id="椭圆_14" data-name="椭圆 14" cx="44" cy="44" r="44" transform="translate(553 258)" fill="#f25b43"/>
      <path id="联合_12" data-name="联合 12" d="M-15564.9-7972.661l-13.367-13.368-13.367,13.368a3,3,0,0,1-4.239,0,3,3,0,0,1,0-4.243l13.365-13.366-13.365-13.365a3,3,0,0,1,0-4.243,2.991,2.991,0,0,1,4.239,0l13.367,13.367,13.367-13.367a2.991,2.991,0,0,1,4.239,0,3,3,0,0,1,0,4.243l-13.365,13.365,13.365,13.366a3,3,0,0,1,0,4.243,2.989,2.989,0,0,1-2.119.878A2.991,2.991,0,0,1-15564.9-7972.661Z" transform="translate(16175.227 8292.227)" fill="#fff"/>
    </g>
  </g>
</svg>
