<svg xmlns="http://www.w3.org/2000/svg" width="60" height="60" viewBox="0 0 60 60">
  <g id="ic-镜像包" transform="translate(1345 -618)">
    <rect id="矩形_2353" data-name="矩形 2353" width="60" height="60" transform="translate(-1345 618)" fill="none"/>
    <g id="组_4679" data-name="组 4679" transform="translate(-1337.5 625.5)">
      <g id="矩形_2131" data-name="矩形 2131">
        <rect id="矩形_2278" data-name="矩形 2278" width="45" height="45" rx="8" fill="#7a8a99"/>
      </g>
      <g id="组_4678" data-name="组 4678" transform="translate(7.5 7.5)">
        <g id="组_2338" data-name="组 2338" transform="translate(7.5 7.5)">
          <g id="椭圆_31" data-name="椭圆 31">
            <g id="椭圆_52" data-name="椭圆 52">
              <circle id="椭圆_61" data-name="椭圆 61" cx="7.5" cy="7.5" r="7.5" fill="#a3b8cc"/>
            </g>
          </g>
        </g>
        <g id="组_2339" data-name="组 2339" transform="translate(11.25 11.25)">
          <g id="路径_723" data-name="路径 723">
            <g id="路径_1005" data-name="路径 1005">
              <path id="路径_1280" data-name="路径 1280" d="M1248.879,1355.875a1.875,1.875,0,1,1-1.875,1.875,1.876,1.876,0,0,1,1.875-1.875m0-1.875a3.75,3.75,0,1,0,3.75,3.75A3.749,3.749,0,0,0,1248.879,1354Z" transform="translate(-1245.129 -1354)" fill="#fff"/>
            </g>
          </g>
        </g>
        <g id="组_4677" data-name="组 4677">
          <path id="路径_1281" data-name="路径 1281" d="M1254.129,1348a15,15,0,1,0,15,15A15,15,0,0,0,1254.129,1348Zm0,28.125A13.125,13.125,0,1,1,1267.254,1363,13.142,13.142,0,0,1,1254.129,1376.125Z" transform="translate(-1239.129 -1348)" fill="#fff"/>
        </g>
      </g>
    </g>
  </g>
</svg>
