<svg xmlns="http://www.w3.org/2000/svg" width="100" height="30" viewBox="0 0 100 30">
  <g id="logo" transform="translate(-15.403 -15)">
    <rect id="矩形_4888" data-name="矩形 4888" width="100" height="30" transform="translate(15.403 15)" fill="none"/>
    <g id="图层_2" data-name="图层 2" transform="translate(20 16)">
      <g id="图层_1" data-name="图层 1" transform="translate(0 0)">
        <rect id="矩形_4884" data-name="矩形 4884" width="9.898" height="9.898" transform="translate(52.309 14) rotate(-45)" fill="#e7290f"/>
        <path id="路径_38074" data-name="路径 38074" d="M245.12,0h10.072a5.252,5.252,0,0,1,3.714,1.538L271.366,14,258.905,26.459A5.252,5.252,0,0,1,255.192,28H245.12l14-14Z" transform="translate(-180.56 0)" fill="#e7290f"/>
        <path id="路径_38075" data-name="路径 38075" d="M2.6,88.257,1.077,85.75H0v5.3H1.046V87.623l1.493,2.455H2.66l1.493-2.463v3.44H5.191v-5.3H4.117Z" transform="translate(0 -63.165)" fill="#615f5f"/>
        <path id="路径_38076" data-name="路径 38076" d="M102.426,89.182l-1.493-2.455h-.121L99.318,89.19V85.75H98.28v5.3h1.077l1.514-2.507,1.525,2.507h1.077v-5.3h-1.048Z" transform="translate(-72.395 -63.165)" fill="#615f5f"/>
        <path id="路径_38077" data-name="路径 38077" d="M63.75,87.507a1.762,1.762,0,0,0-1.767-1.757H59.86v5.3h1.054V89.211h.79l1.054,1.844H63.9l-1.175-2A1.733,1.733,0,0,0,63.75,87.507Zm-1.767.79H60.906v-1.58h1.077a.748.748,0,0,1,.719.79A.756.756,0,0,1,61.983,88.3Z" transform="translate(-44.094 -63.165)" fill="#615f5f"/>
        <path id="路径_38078" data-name="路径 38078" d="M78.183,85.35a2.76,2.76,0,1,0,2.758,2.758,2.729,2.729,0,0,0-2.758-2.758Zm0,4.493a1.741,1.741,0,1,1,1.712-1.736,1.68,1.68,0,0,1-1.712,1.736Z" transform="translate(-55.556 -62.87)" fill="#615f5f"/>
        <rect id="矩形_4885" data-name="矩形 4885" width="1.046" height="5.304" transform="translate(31.945 22.585)" fill="#615f5f"/>
        <path id="路径_38079" data-name="路径 38079" d="M131.628,88.987l-2.273-3.237h-.8v5.3h1.046V87.812l2.273,3.242h.8v-5.3h-1.046Z" transform="translate(-94.7 -63.165)" fill="#615f5f"/>
        <path id="路径_38080" data-name="路径 38080" d="M41.929,89.784a1.741,1.741,0,1,1,1.5-2.607l.893-.527a2.763,2.763,0,1,0,0,2.765l-.893-.527a1.667,1.667,0,0,1-1.5.9Z" transform="translate(-28.852 -62.811)" fill="#615f5f"/>
        <path id="路径_38081" data-name="路径 38081" d="M151.486,87.969h-2.758v.977h1.441a1.744,1.744,0,1,1,.066-1.844l.893-.527a2.773,2.773,0,1,0,.358,1.4Z" transform="translate(-107.502 -62.735)" fill="#615f5f"/>
        <path id="路径_38082" data-name="路径 38082" d="M22.607,85.75l-1.857,5.3h1.13L22.2,90.1h0l.561-1.662.5-1.485.727,2.168H22.965l-.329.98h1.678l.316.953h1.138L23.9,85.75Z" transform="translate(-15.285 -63.165)" fill="#615f5f"/>
        <path id="路径_38083" data-name="路径 38083" d="M0,19.177l2.152-7.57h3l-2.125,7.57Zm2.323-8.586L2.37,6.018h3l-.026,4.572ZM3.179,5,3.226.432h3L6.2,5Zm3.184,8.428L7.8,4.046h-1l.408-2.568h5.231l-.408,2.568H10.98L9.629,12.816l1.032-.213-.437,2.829L4.87,16.448l.442-2.834Zm10.148-.348-.374,2.352H10.68l.382-2.357Zm1.075-5.992.587-3.724H15.579l-.964,6.179h5.773l-1.206,7.836a2.189,2.189,0,0,1-.624,1.272,1.615,1.615,0,0,1-1.175.493h-5.81l1.9-2.244H16.4l.764-5H11.51L13.153,1.285h2.294l.055-.263L14.9,0h3.569l-.2,1.285h2.818l-.906,5.75a2.341,2.341,0,0,1-.661,1.317,1.654,1.654,0,0,1-1.2.548H16.135Zm-.414.108H15.516l.121-2.916h1.707Z" transform="translate(0 0)" fill="#615f5f"/>
        <path id="路径_38084" data-name="路径 38084" d="M91.19,21.126l3.226-2h4.322l-2.913,2Zm4.741-6.471.092-.643H93.484l.935-5.963H111.2l-.938,5.963h-2.976l-.092.643H110.6l-.263,1.712h-3.411l-.087.527h3.911l-.263,1.794H91.546l.263-1.794h3.774l.084-.527H92.288l.263-1.712Zm3.45-7.032.527-3.371H94.143l.263-1.791h8.865l-.79,5.162Zm-.811-1.5-1.03,1.5H94.116l1.188-1.5Zm-.558-1.58.548,1.285H95.315l-.751-1.285Zm2.133,7.92.116-.7h-2.95l-.09.7Zm-2.6-2.223H100.5l.116-.669H97.661ZM99.041,16.9h4.343l.087-.527H99.131Zm.353-2.247h4.343l.09-.643H99.484Zm9.545-10.4H103.6l.263-1.791h8.61l-.79,5.162h-3.271Zm-1.317,1.9-.943,1.472H103.5l1.03-1.472Zm-.585,6.321.092-.7h-3.424l-.116.7Zm.026-7.9.59,1.285h-3.082L103.98,4.57Zm-3.018,5-.111.666h3.424l.113-.669Zm1.28,11.552L103.8,19.148h4.343l1.91,1.978Z" transform="translate(-67.172 -1.812)" fill="#615f5f"/>
      </g>
    </g>
  </g>
</svg>
