<svg xmlns="http://www.w3.org/2000/svg" width="16" height="16" viewBox="0 0 16 16">
  <g id="ic-节点管理" transform="translate(82 -1146)">
    <rect id="矩形_4846" data-name="矩形 4846" width="16" height="16" transform="translate(-82 1146)" fill="none"/>
    <path id="路径_38062" data-name="路径 38062" d="M100.185,77.477a6.291,6.291,0,0,0,7.385.185l.123-.123.738.985A7.373,7.373,0,0,1,104,80a7.274,7.274,0,0,1-4.369-1.415l-.185-.123ZM104,64a1.813,1.813,0,0,1,1.846,1.846,1.793,1.793,0,0,1-1.231,1.723V69.6a3.1,3.1,0,0,1,2.462,3.015,2.5,2.5,0,0,1-.246,1.169l1.846.8a1.834,1.834,0,0,1,1.477-.738,1.846,1.846,0,1,1,0,3.692,1.882,1.882,0,0,1-1.846-1.785l-2.154-.985a2.793,2.793,0,0,1-2.154.923,3.128,3.128,0,0,1-2.4-1.169l-1.908.985v.185a1.846,1.846,0,1,1-1.846-1.846A1.909,1.909,0,0,1,99.2,74.4l1.846-.985a3.6,3.6,0,0,1-.123-.8,3.1,3.1,0,0,1,2.462-3.015V67.569a1.793,1.793,0,0,1-1.231-1.723A1.813,1.813,0,0,1,104,64ZM97.846,75.077a.615.615,0,1,0,.615.615A.581.581,0,0,0,97.846,75.077Zm12.308,0a.615.615,0,1,0,.615.615A.581.581,0,0,0,110.154,75.077ZM104,70.769a1.846,1.846,0,1,0,1.846,1.846A1.813,1.813,0,0,0,104,70.769Zm-3.015-4.862.492,1.108a6.076,6.076,0,0,0-3.631,5.6v.246l-1.231.062v-.308a7.373,7.373,0,0,1,4.185-6.646Zm6.215.062a7.279,7.279,0,0,1,4.185,6.462v.185h-1.231a6.135,6.135,0,0,0-3.323-5.477l-.185-.062Zm-3.2-.738a.615.615,0,1,0,.615.615A.581.581,0,0,0,104,65.231Z" transform="translate(-178 1082)" fill="currentColor"/>
  </g>
</svg>
